<svg width="150" height="62" viewBox="0 0 150 62" fill="none" xmlns="http://www.w3.org/2000/svg">
<path d="M2.10547 28V11.5H5.17773L15.1572 24.96L24.9863 11.5H28.0586V28H25.9961V13.3691L16.1455 26.915H14.2764L4.16797 13.3691V28H2.10547ZM38.0703 28.2363C36.5879 28.2363 35.3633 28.1576 34.3965 28C33.4368 27.8496 32.7207 27.513 32.248 26.9902C31.7826 26.4674 31.5498 25.6546 31.5498 24.5518C31.5498 23.4274 31.7682 22.6038 32.2051 22.0811C32.6491 21.5511 33.3473 21.2074 34.2998 21.0498C35.2594 20.8923 36.5163 20.8135 38.0703 20.8135C39.3307 20.8135 40.387 20.8421 41.2393 20.8994C42.0915 20.9567 42.8542 21.057 43.5273 21.2002C43.513 20.2477 43.4486 19.4993 43.334 18.9551C43.2194 18.4036 43.0046 17.9954 42.6895 17.7305C42.3743 17.4655 41.9124 17.2972 41.3037 17.2256C40.7021 17.1468 39.9001 17.1074 38.8975 17.1074C37.7516 17.1074 36.8529 17.1325 36.2012 17.1826C35.5566 17.2327 35.0876 17.3223 34.7939 17.4512C34.5003 17.5801 34.3141 17.7663 34.2354 18.0098C34.1637 18.2533 34.1279 18.5684 34.1279 18.9551H32.0654C32.0654 18.1816 32.1693 17.5586 32.377 17.0859C32.5918 16.6133 32.9535 16.2552 33.4619 16.0117C33.9704 15.7682 34.665 15.6035 35.5459 15.5176C36.4339 15.4316 37.5511 15.3887 38.8975 15.3887C40.3441 15.3887 41.5078 15.4818 42.3887 15.668C43.2767 15.8542 43.9499 16.1908 44.4082 16.6777C44.8737 17.1576 45.1852 17.8307 45.3428 18.6973C45.5075 19.5638 45.5898 20.681 45.5898 22.0488V28H43.5273V27.1514C43.2839 27.4092 42.9473 27.6169 42.5176 27.7744C42.0879 27.932 41.515 28.0465 40.7988 28.1182C40.0898 28.1969 39.1803 28.2363 38.0703 28.2363ZM38.0703 26.5605C39.2949 26.5605 40.2725 26.5462 41.0029 26.5176C41.7334 26.4889 42.2777 26.4102 42.6357 26.2812C43.001 26.1523 43.2409 25.9447 43.3555 25.6582C43.4701 25.3717 43.5273 24.9707 43.5273 24.4551V22.5537L38.0703 22.4893C37.1035 22.4749 36.3229 22.4893 35.7285 22.5322C35.1413 22.568 34.6937 22.654 34.3857 22.79C34.0778 22.9189 33.8701 23.1266 33.7627 23.4131C33.6624 23.6924 33.6123 24.0719 33.6123 24.5518C33.6123 25.0173 33.6624 25.3861 33.7627 25.6582C33.8701 25.9303 34.0778 26.1309 34.3857 26.2598C34.6937 26.3887 35.1413 26.471 35.7285 26.5068C36.3229 26.5426 37.1035 26.5605 38.0703 26.5605ZM48.5117 28V15.625H50.5742V17.333C50.8034 16.9678 51.0326 16.6634 51.2617 16.4199C51.498 16.1764 51.8024 15.9831 52.1748 15.8398C52.5544 15.6966 53.0664 15.5964 53.7109 15.5391C54.3555 15.4746 55.2041 15.4424 56.2568 15.4424V17.1719C54.8389 17.1719 53.7396 17.222 52.959 17.3223C52.1855 17.4225 51.6305 17.5944 51.2939 17.8379C50.9574 18.0742 50.7533 18.4036 50.6816 18.8262C50.61 19.2487 50.5742 19.7858 50.5742 20.4375V28H48.5117ZM66.1182 28.2363C64.736 28.2363 63.5615 28.1647 62.5947 28.0215C61.6279 27.8854 60.8473 27.6025 60.2529 27.1729C59.6585 26.736 59.2253 26.0843 58.9531 25.2178C58.681 24.3512 58.5449 23.1947 58.5449 21.748C58.5449 20.3444 58.681 19.2201 58.9531 18.375C59.2253 17.5299 59.6585 16.8926 60.2529 16.4629C60.8473 16.0332 61.6279 15.7467 62.5947 15.6035C63.5615 15.4603 64.736 15.3887 66.1182 15.3887C67.5075 15.3887 68.682 15.4603 69.6416 15.6035C70.6084 15.7467 71.389 16.0332 71.9834 16.4629C72.5778 16.8926 73.0111 17.5299 73.2832 18.375C73.5553 19.2201 73.6914 20.3444 73.6914 21.748C73.6914 23.1947 73.5553 24.3512 73.2832 25.2178C73.0111 26.0843 72.5778 26.736 71.9834 27.1729C71.389 27.6025 70.6084 27.8854 69.6416 28.0215C68.682 28.1647 67.5075 28.2363 66.1182 28.2363ZM71.6289 21.748C71.6289 20.724 71.5752 19.904 71.4678 19.2881C71.3675 18.6722 71.1419 18.2103 70.791 17.9023C70.4401 17.5872 69.8923 17.376 69.1475 17.2686C68.4098 17.1611 67.4001 17.1074 66.1182 17.1074C64.8434 17.1074 63.8337 17.1611 63.0889 17.2686C62.3441 17.376 61.7962 17.5872 61.4453 17.9023C61.0944 18.2103 60.8652 18.6722 60.7578 19.2881C60.6576 19.904 60.6074 20.724 60.6074 21.748C60.6074 22.8079 60.6576 23.6566 60.7578 24.2939C60.8652 24.9313 61.0944 25.4111 61.4453 25.7334C61.7962 26.0485 62.3441 26.2598 63.0889 26.3672C63.8337 26.4674 64.8434 26.5176 66.1182 26.5176C67.4001 26.5176 68.4098 26.4674 69.1475 26.3672C69.8923 26.2598 70.4401 26.0485 70.791 25.7334C71.1419 25.4111 71.3675 24.9313 71.4678 24.2939C71.5752 23.6566 71.6289 22.8079 71.6289 21.748ZM76.1621 28V11.5H78.2246V21.0283L86.4424 15.625H89.5684L80.835 21.4365L89.9121 28H86.8398L78.2246 21.6514V28H76.1621ZM91.3516 28V11.5H93.4141V21.0283L101.632 15.625H104.758L96.0244 21.4365L105.102 28H102.029L93.4141 21.6514V28H91.3516ZM112.675 28.2363C111.293 28.2363 110.118 28.1647 109.151 28.0215C108.185 27.8854 107.404 27.6025 106.81 27.1729C106.215 26.736 105.782 26.0843 105.51 25.2178C105.238 24.3512 105.102 23.1947 105.102 21.748C105.102 20.3444 105.238 19.2201 105.51 18.375C105.782 17.5299 106.215 16.8926 106.81 16.4629C107.404 16.0332 108.185 15.7467 109.151 15.6035C110.118 15.4603 111.293 15.3887 112.675 15.3887C114.064 15.3887 115.239 15.4603 116.198 15.6035C117.165 15.7467 117.946 16.0332 118.54 16.4629C119.134 16.8926 119.568 17.5299 119.84 18.375C120.112 19.2201 120.248 20.3444 120.248 21.748C120.248 23.1947 120.112 24.3512 119.84 25.2178C119.568 26.0843 119.134 26.736 118.54 27.1729C117.946 27.6025 117.165 27.8854 116.198 28.0215C115.239 28.1647 114.064 28.2363 112.675 28.2363ZM118.186 21.748C118.186 20.724 118.132 19.904 118.024 19.2881C117.924 18.6722 117.699 18.2103 117.348 17.9023C116.997 17.5872 116.449 17.376 115.704 17.2686C114.966 17.1611 113.957 17.1074 112.675 17.1074C111.4 17.1074 110.39 17.1611 109.646 17.2686C108.901 17.376 108.353 17.5872 108.002 17.9023C107.651 18.2103 107.422 18.6722 107.314 19.2881C107.214 19.904 107.164 20.724 107.164 21.748C107.164 22.8079 107.214 23.6566 107.314 24.2939C107.422 24.9313 107.651 25.4111 108.002 25.7334C108.353 26.0485 108.901 26.2598 109.646 26.3672C110.39 26.4674 111.4 26.5176 112.675 26.5176C113.957 26.5176 114.966 26.4674 115.704 26.3672C116.449 26.2598 116.997 26.0485 117.348 25.7334C117.699 25.4111 117.924 24.9313 118.024 24.2939C118.132 23.6566 118.186 22.8079 118.186 21.748Z" fill="black"/>
<path d="M2 31.2186C68.8032 31.5626 112.469 28.2514 138.475 51.6099" stroke="black"/>
<path d="M10.8062 34.9206L10.784 42.4246L9.67804 42.4213L9.69218 37.6333C9.69276 37.4374 9.69803 37.232 9.708 37.0174C9.7273 36.8028 9.74658 36.5928 9.76586 36.3876L9.72386 36.3874L7.25605 42.4142L6.22005 42.4111L3.85788 36.3701L3.81588 36.37C3.83394 36.5754 3.84266 36.7854 3.84202 37.0001C3.85072 37.2148 3.85474 37.4341 3.85408 37.6581L3.84006 42.4041L2.73407 42.4008L2.75623 34.8969L4.39422 34.9017L6.74239 40.9427L9.1682 34.9158L10.8062 34.9206Z" fill="black"/>
<path d="M15.9821 42.4222L14.5541 42.4241L16.6917 39.2712C16.4023 39.197 16.1221 39.0807 15.8512 38.9224C15.5803 38.7547 15.3607 38.5263 15.1923 38.2372C15.0239 37.9388 14.9394 37.5702 14.9388 37.1316C14.9378 36.4129 15.1797 35.8666 15.6645 35.4926C16.1493 35.1093 16.793 34.9171 17.5957 34.916L20.9557 34.9116L20.9661 42.4156L19.7341 42.4172L19.73 39.4352L17.91 39.4376L15.9821 42.4222ZM16.1288 37.144C16.1294 37.5733 16.2885 37.8951 16.6061 38.1094C16.9331 38.3143 17.3859 38.4163 17.9645 38.4156L19.7285 38.4132L19.7251 35.9352L17.7231 35.9379C17.1538 35.9386 16.7433 36.0512 16.4916 36.2755C16.2492 36.4998 16.1283 36.7893 16.1288 37.144Z" fill="black"/>
<path d="M30.3065 34.8929L30.3086 35.9289L26.9626 35.9353L26.9755 42.4033L25.7435 42.4056L25.7285 34.9016L30.3065 34.8929Z" fill="black"/>
<path d="M39.0693 34.8906L40.4133 34.8915L37.2047 38.5012L40.6739 42.3957L39.2459 42.3947L35.8607 38.5842L35.8579 42.3922L34.6259 42.3913L34.6313 34.8873L35.8633 34.8882L35.8607 38.5282L39.0693 34.8906Z" fill="black"/>
<path d="M47.218 34.8025C48.1327 34.8098 48.8077 35.0159 49.2432 35.4207C49.6786 35.8255 49.8928 36.4666 49.8859 37.3439L49.8452 42.4537L48.9492 42.4466L48.7197 41.3807L48.6637 41.3803C48.4469 41.6492 48.2211 41.8761 47.9862 42.0609C47.7608 42.2364 47.4985 42.365 47.1991 42.4466C46.9091 42.5283 46.5542 42.5674 46.1342 42.5641C45.6862 42.5605 45.2808 42.4779 44.9181 42.3163C44.5647 42.1548 44.2867 41.9099 44.0839 41.5816C43.8813 41.244 43.782 40.8232 43.786 40.3192C43.7919 39.5726 44.0905 39.0009 44.6817 38.6043C45.2729 38.1984 46.18 37.9816 47.4029 37.9541L48.6772 37.9223L48.6808 37.4743C48.6858 36.849 48.5539 36.4139 48.2852 36.1691C48.0164 35.9242 47.6348 35.7999 47.1401 35.7959C46.7481 35.7928 46.3743 35.8504 46.0187 35.9689C45.6631 36.0781 45.3308 36.2061 45.0216 36.353L44.651 35.426C44.979 35.2513 45.3675 35.105 45.8165 34.9873C46.2655 34.8602 46.7327 34.7986 47.218 34.8025ZM47.5501 38.8093C46.6165 38.8391 45.9667 38.9833 45.6006 39.2417C45.2439 39.5002 45.0636 39.8674 45.0598 40.3434C45.0565 40.7634 45.18 41.0724 45.4305 41.2704C45.6902 41.4685 46.0208 41.5691 46.4221 41.5723C47.0567 41.5774 47.5854 41.409 48.0082 41.067C48.431 40.7157 48.6453 40.1761 48.6511 39.4481L48.6564 38.7761L47.5501 38.8093Z" fill="black"/>
<path d="M54.6376 42.5176L53.2099 42.4883L55.4191 39.383C55.1314 39.3024 54.854 39.18 54.5868 39.0158C54.3198 38.8423 54.1054 38.6092 53.9436 38.3165C53.7821 38.0144 53.706 37.6441 53.7154 37.2055C53.7309 36.487 53.9852 35.9461 54.4785 35.5829C54.9719 35.2102 55.6199 35.0322 56.4224 35.0487L59.7817 35.1176L59.6205 42.6199L58.3888 42.5946L58.4528 39.6133L56.6332 39.5759L54.6376 42.5176ZM54.9049 37.244C54.8957 37.6732 55.0474 37.9984 55.36 38.2195C55.6822 38.4315 56.1326 38.5434 56.7111 38.5553L58.4748 38.5915L58.528 36.1141L56.5264 36.073C55.9572 36.0613 55.5442 36.1649 55.2875 36.3836C55.04 36.6026 54.9125 36.8894 54.9049 37.244Z" fill="black"/>
<path d="M77.0032 35.8824L76.5467 43.3725L75.4425 43.3082L75.7338 38.529C75.7457 38.3334 75.7629 38.1287 75.7853 37.915C75.817 37.7018 75.8484 37.4933 75.8795 37.2894L75.8376 37.287L73.0246 43.1673L71.9904 43.107L69.9815 36.9458L69.9396 36.9433C69.9457 37.1494 69.9423 37.3595 69.9292 37.5738C69.9255 37.7886 69.9168 38.0078 69.9032 38.2314L69.6144 42.9686L68.5103 42.9043L68.9668 35.4142L70.602 35.5094L72.5969 41.6699L75.368 35.7871L77.0032 35.8824Z" fill="black"/>
<path d="M85.2199 36.4741C85.8605 36.5411 86.3929 36.7375 86.8173 37.0634C87.251 37.3903 87.5607 37.8215 87.7462 38.357C87.942 38.8842 88.0029 39.4865 87.9289 40.1638L87.8482 40.9014L82.738 40.3671C82.6643 41.2133 82.8073 41.8805 83.167 42.3685C83.537 42.8483 84.0934 43.127 84.836 43.2046C85.3094 43.2541 85.7317 43.256 86.1028 43.2104C86.4843 43.1564 86.8791 43.0663 87.2872 42.9401L87.17 44.0117C86.7712 44.1389 86.382 44.2202 86.0026 44.2556C85.6222 44.3003 85.1767 44.2959 84.6661 44.2426C83.9606 44.1688 83.3498 43.9595 82.8336 43.6146C82.3266 43.2707 81.9509 42.7998 81.7065 42.2018C81.4723 41.5955 81.4004 40.8795 81.4907 40.0537C81.58 39.2373 81.7912 38.5508 82.1244 37.9945C82.4668 37.4391 82.9012 37.0294 83.4277 36.7653C83.9635 36.5023 84.5609 36.4052 85.2199 36.4741ZM85.0964 37.4747C84.5116 37.4136 84.0267 37.5552 83.6416 37.8997C83.2669 38.2359 83.0105 38.7346 82.8724 39.3958L86.6737 39.7932C86.7204 39.3665 86.696 38.9885 86.6005 38.6595C86.5051 38.3305 86.3324 38.0637 86.0825 37.8593C85.8428 37.6466 85.5142 37.5184 85.0964 37.4747Z" fill="black"/>
<path d="M91.7045 40.3814C91.8896 39.3052 92.1529 38.4074 92.4944 37.688C92.8468 36.9609 93.2873 36.409 93.8161 36.0325C94.3557 35.6483 94.9981 35.4371 95.7433 35.3988C96.3641 35.3684 96.9687 35.3496 97.5571 35.3423C98.1455 35.335 98.6955 35.3308 99.2071 35.3298L99.2316 36.4262C98.9858 36.4237 98.7108 36.4258 98.4066 36.4325C98.104 36.43 97.796 36.4314 97.4825 36.4366C97.1707 36.4327 96.8673 36.4348 96.5723 36.4431C96.2881 36.4436 96.0361 36.4495 95.8164 36.4607C95.5014 36.4751 95.2108 36.5408 94.9444 36.6578C94.6796 36.7656 94.4376 36.9339 94.2184 37.1627C94.0083 37.393 93.8202 37.6884 93.654 38.0489C93.4878 38.4093 93.3513 38.8456 93.2443 39.3577L93.3271 39.3713C93.4861 39.2177 93.692 39.0671 93.9446 38.9195C94.2065 38.7734 94.5051 38.6617 94.8404 38.5844C95.1849 38.5086 95.5597 38.504 95.9649 38.5707C96.6096 38.6766 97.1193 38.907 97.4939 39.2618C97.8793 39.6089 98.1352 40.0483 98.2616 40.5798C98.3972 41.1128 98.4081 41.7105 98.2942 42.3728C98.1534 43.1914 97.8928 43.8532 97.5124 44.3582C97.1319 44.8632 96.6647 45.212 96.1108 45.4047C95.5583 45.5881 94.946 45.6246 94.2737 45.5141C93.7671 45.4308 93.3233 45.2585 92.9421 44.9972C92.5624 44.7267 92.2585 44.3741 92.0302 43.9393C91.8019 43.5045 91.6585 42.9891 91.6 42.3931C91.5416 41.797 91.5764 41.1265 91.7045 40.3814ZM94.5436 44.5228C94.9488 44.5894 95.313 44.5641 95.6362 44.447C95.9686 44.3314 96.2501 44.0987 96.4808 43.7488C96.7114 43.3989 96.8805 42.9112 96.988 42.2857C97.1178 41.5315 97.077 40.9147 96.8659 40.4355C96.6655 39.9485 96.243 39.6521 95.5983 39.5461C95.1931 39.4795 94.8089 39.5109 94.4457 39.6403C94.0841 39.7606 93.773 39.9175 93.5124 40.1112C93.2518 40.3048 93.0621 40.4722 92.9431 40.6134C92.8656 41.0641 92.8227 41.5064 92.8144 41.9401C92.8061 42.3738 92.8509 42.7737 92.949 43.1398C93.0578 43.4982 93.2376 43.802 93.4883 44.0513C93.7498 44.2929 94.1015 44.4501 94.5436 44.5228Z" fill="black"/>
<path d="M106.198 40.0013C106.823 40.1571 107.322 40.4258 107.695 40.8074C108.077 41.1912 108.321 41.6608 108.427 42.2163C108.545 42.7649 108.517 43.3689 108.345 44.0282L108.158 44.7461L103.173 43.503C102.976 44.3294 103.021 45.009 103.306 45.5418C103.603 46.0679 104.114 46.4213 104.838 46.6019C105.3 46.7171 105.718 46.7781 106.093 46.7849C106.478 46.7849 106.883 46.751 107.306 46.6833L107.033 47.7264C106.62 47.7964 106.222 47.8223 105.841 47.8043C105.458 47.7952 105.017 47.7286 104.519 47.6044C103.831 47.4328 103.256 47.1404 102.795 46.7272C102.342 46.3162 102.039 45.7981 101.884 45.1726C101.74 44.5405 101.773 43.8225 101.982 43.0187C102.19 42.224 102.499 41.5748 102.91 41.0714C103.33 40.5701 103.82 40.2258 104.38 40.0385C104.949 39.8533 105.555 39.8409 106.198 40.0013ZM105.93 40.9733C105.36 40.831 104.859 40.9032 104.427 41.19C104.007 41.4699 103.68 41.9271 103.447 42.5615L107.156 43.4862C107.264 43.0708 107.295 42.6938 107.248 42.3551C107.201 42.0164 107.069 41.7285 106.851 41.4915C106.645 41.2476 106.338 41.0749 105.93 40.9733Z" fill="black"/>
<path d="M115.827 51.037L114.657 50.6097L116.969 44.5543L114.891 43.7957C114.381 44.871 113.91 45.777 113.479 46.5137C113.051 47.2417 112.643 47.8131 112.255 48.2277C111.867 48.6424 111.489 48.9118 111.122 49.0361C110.755 49.1604 110.383 49.1537 110.006 49.0161C109.892 48.9745 109.781 48.9241 109.674 48.8651C109.572 48.8179 109.493 48.7641 109.436 48.7037L109.765 47.8405C109.811 47.8771 109.863 47.911 109.921 47.9421C109.979 47.9732 110.039 48 110.1 48.0224C110.293 48.0928 110.499 48.0784 110.716 47.979C110.934 47.8797 111.166 47.6911 111.412 47.4133C111.667 47.1387 111.94 46.7765 112.232 46.3267C112.527 45.8681 112.842 45.3175 113.177 44.6749C113.512 44.0324 113.872 43.2994 114.256 42.476L118.504 44.0268L115.827 51.037Z" fill="black"/>
<path d="M124.943 50.4436C125.519 50.7528 125.957 51.0782 126.257 51.4197C126.558 51.7612 126.725 52.1211 126.758 52.4994C126.805 52.8739 126.711 53.2686 126.478 53.6836C126.249 54.0904 125.956 54.3935 125.598 54.593C125.248 54.7968 124.834 54.8763 124.356 54.8314C123.878 54.7865 123.335 54.6007 122.726 54.2738L119.73 52.6636L123.406 46.122L124.491 46.7051L122.982 49.3901L124.943 50.4436ZM125.359 53.1615C125.583 52.7628 125.59 52.417 125.38 52.1241C125.182 51.8274 124.829 51.5422 124.319 51.2683L122.482 50.281L121.302 52.3802L123.164 53.3807C123.624 53.6281 124.048 53.7499 124.436 53.7462C124.831 53.747 125.139 53.552 125.359 53.1615Z" fill="black"/>
</svg>
